# xmcd CD database file
#
# Track frame offsets:
#	225
#	23492
#	49149
#	66195
#
# Disc length: 1206 seconds
#
# Revision: 0
# Processed by: cddbd v1.5.1PL0 Copyright (c) Steve Scherf et al.
# Submitted via: CDex 1.40Release
#
DISCID=2c04b304
DTITLE=ヒポポタミ - たいせつな人
DYEAR=2005
DGENRE=JPop
TTITLE0=たいせつな人
TTITLE1=風のうた
TTITLE2=An owl
TTITLE3=未来への願い
EXTD=YEAR: 2005
EXTT0=
EXTT1=
EXTT2=
EXTT3=
PLAYORDER=
